<?xml version="1.0" encoding="UTF-8"?>
<svg width="17px" height="10px" viewBox="0 0 17 10" version="1.1" xmlns="http://www.w3.org/2000/svg" xmlns:xlink="http://www.w3.org/1999/xlink">
    <title>select-arrow</title>
    <g id="Symbols" stroke="none" stroke-width="1" fill="none" fill-rule="evenodd">
        <g id="Global-/-Arrow---Down" fill="#000000">
            <path d="M16.8300188,1.03083217 L15.9784403,0.171875659 C15.8649104,0.0571512928 15.7342361,0 15.5864172,0 C15.4390166,0 15.3083422,0.0571512928 15.1948124,0.171875659 L8.50010454,6.92437471 L1.80560578,0.172086549 C1.69207591,0.0573621831 1.56140157,0.000210890379 1.41379183,0.000210890379 C1.2661821,0.000210890379 1.13550775,0.0573621831 1.02197789,0.172086549 L0.170399341,1.03104306 C0.0566603943,1.14555654 0,1.27736303 0,1.42625163 C0,1.57514024 0.0568694732,1.70694673 0.170399341,1.8214602 L8.1082906,9.82833523 C8.22182046,9.94284871 8.3524948,10 8.50010454,10 C8.64771428,10 8.77817954,9.94284871 8.8917094,9.82833523 L16.8300188,1.8214602 C16.9435487,1.70694673 17,1.57514024 17,1.42625163 C17,1.27736303 16.9435487,1.14555654 16.8300188,1.03083217 L16.8300188,1.03083217 Z" id="select-arrow"></path>
        </g>
    </g>
</svg>