<?xml version="1.0" encoding="UTF-8"?>
<svg width="55px" height="52px" viewBox="0 0 55 52" version="1.1" xmlns="http://www.w3.org/2000/svg" xmlns:xlink="http://www.w3.org/1999/xlink">
    <title>“</title>
    <g id="Page-1" stroke="none" stroke-width="1" fill="none" fill-rule="evenodd">
        <g id="Desktop-HD-Copy-2" transform="translate(-226.000000, -2500.000000)" fill="#40463B" fill-rule="nonzero">
            <g id="Group" transform="translate(0.000000, 2405.000000)">
                <g id="Post-/-Testimonial" transform="translate(219.000000, 86.000000)">
                    <path d="M28.4179688,60.0546875 L28.4179688,38.765625 L17.7734375,38.765625 C17.7083333,37.984375 17.6595052,37.4798177 17.6269531,37.2519531 C17.594401,37.0240885 17.578125,36.7473958 17.578125,36.421875 C17.578125,33.6875 18.0338542,30.9205729 18.9453125,28.1210938 C20.7682292,22.4570312 23.9257812,19.2018229 28.4179688,18.3554688 L28.4179688,18.3554688 L28.4179688,9.17578125 C22.2330729,9.95703125 17.2200521,12.9518229 13.3789062,18.1601562 C9.53776042,23.3684896 7.6171875,30.7903646 7.6171875,40.4257812 L7.6171875,40.4257812 L7.6171875,60.0546875 L28.4179688,60.0546875 Z M61.328125,60.0546875 L61.328125,38.765625 L50.6835938,38.765625 C50.5533854,38.3098958 50.4720052,37.8867188 50.4394531,37.4960938 C50.406901,37.1054688 50.390625,36.7148438 50.390625,36.3242188 C50.390625,31.8320312 51.3183594,27.8606771 53.1738281,24.4101562 C55.0292969,20.9596354 57.7473958,18.9414062 61.328125,18.3554688 L61.328125,18.3554688 L61.328125,9.17578125 C53.90625,10.0872396 48.5677083,13.5865885 45.3125,19.6738281 C42.0572917,25.7610677 40.4296875,32.6783854 40.4296875,40.4257812 L40.4296875,40.4257812 L40.4296875,60.0546875 L61.328125,60.0546875 Z" id="“"></path>
                </g>
            </g>
        </g>
    </g>
</svg>