<svg xmlns="http://www.w3.org/2000/svg" width="20" height="20" viewBox="0 0 20 20">
  <g id="Phone2" transform="translate(-3 -3)">
    <path id="Path_11" data-name="Path 11" d="M21.889,16.889a12.623,12.623,0,0,1-3.967-.633,1.134,1.134,0,0,0-1.133.267l-2.444,2.444a16.717,16.717,0,0,1-7.322-7.322L9.467,9.189a1.067,1.067,0,0,0,.278-1.111,12.623,12.623,0,0,1-.633-3.967A1.114,1.114,0,0,0,8,3H4.111A1.114,1.114,0,0,0,3,4.111,18.887,18.887,0,0,0,21.889,23,1.114,1.114,0,0,0,23,21.889V18A1.114,1.114,0,0,0,21.889,16.889ZM20.778,13H23A10,10,0,0,0,13,3V5.222A7.772,7.772,0,0,1,20.778,13Zm-4.444,0h2.222A5.558,5.558,0,0,0,13,7.444V9.667A3.329,3.329,0,0,1,16.333,13Z" fill="#373d32"/>
  </g>
</svg>
