<svg xmlns="http://www.w3.org/2000/svg" width="33.747" height="30" viewBox="0 0 33.747 30">
  <g id="Reset_Map" data-name="Reset Map" transform="translate(-79.747 -969)">
    <path id="house-solid" d="M33.738,14.971a1.893,1.893,0,0,1-1.875,1.881H29.988l.041,9.387a4.3,4.3,0,0,1-.029.475v.943A2.343,2.343,0,0,1,27.656,30h-.937c-.064,0-.129,0-.193-.006-.082.006-.164.006-.246.006H22.969a2.343,2.343,0,0,1-2.344-2.344V22.5a1.873,1.873,0,0,0-1.875-1.875H15A1.873,1.873,0,0,0,13.125,22.5v5.156A2.343,2.343,0,0,1,10.781,30H7.506c-.088,0-.176-.006-.264-.012-.07.006-.141.012-.211.012H6.094A2.343,2.343,0,0,1,3.75,27.656V21.094a1.535,1.535,0,0,1,.006-.164V16.852H1.875A1.852,1.852,0,0,1,0,14.971a1.9,1.9,0,0,1,.586-1.406L15.609.469A1.691,1.691,0,0,1,16.9,0a1.946,1.946,0,0,1,1.23.41L33.094,13.564A1.605,1.605,0,0,1,33.738,14.971Z" transform="translate(79.747 969)" fill="#96b468"/>
  </g>
</svg>
